<?xml version="1.0" standalone="no"?>
<!DOCTYPE svg PUBLIC "-//W3C//DTD SVG 20010904//EN"
 "http://www.w3.org/TR/2001/REC-SVG-20010904/DTD/svg10.dtd">
<svg version="1.0" xmlns="http://www.w3.org/2000/svg"
 width="716.000000pt" height="716.000000pt" viewBox="0 0 716.000000 716.000000"
 preserveAspectRatio="xMidYMid meet">
<metadata>
Created by potrace 1.14, written by Peter Selinger 2001-2017
</metadata>
<g transform="translate(0.000000,716.000000) scale(0.100000,-0.100000)"
fill="#000000" stroke="none">
<path d="M3421 6965 c-29 -14 -129 -66 -222 -116 -385 -208 -744 -337 -1154
-414 -238 -44 -341 -53 -715 -60 -348 -7 -379 -12 -446 -69 -22 -19 -53 -58
-69 -87 l-30 -54 -3 -890 c-4 -945 0 -1057 44 -1380 28 -209 52 -339 95 -509
95 -375 265 -780 489 -1161 49 -84 90 -158 90 -163 0 -6 -188 -194 -417 -418
-567 -555 -552 -538 -573 -586 -85 -195 -7 -419 178 -510 62 -31 74 -33 167
-33 168 0 141 -21 690 531 l474 476 93 -83 c274 -242 764 -569 1128 -753 253
-128 294 -132 477 -49 223 101 626 350 898 554 368 276 727 641 941 955 88
130 236 384 279 479 219 488 321 845 398 1390 19 142 21 201 24 1143 4 980 4
994 -16 1035 -34 69 -78 114 -144 147 l-62 30 -380 10 c-380 10 -436 15 -680
60 -352 66 -760 212 -1080 385 -320 175 -371 189 -474 140z m314 -884 c399
-199 752 -317 1130 -380 219 -37 320 -49 484 -61 123 -9 127 -9 154 -40 l27
-30 0 -650 c0 -773 0 -768 -102 -1224 -22 -98 -53 -224 -70 -280 -57 -192
-171 -460 -283 -661 -156 -281 -498 -681 -770 -899 -270 -216 -692 -467 -785
-466 -41 1 -97 24 -235 99 -269 146 -511 318 -745 530 l-55 50 147 147 147
148 90 -42 c215 -100 390 -141 636 -149 247 -8 413 24 636 122 532 234 866
710 909 1298 41 557 -255 1116 -747 1411 -245 146 -513 213 -813 203 -406 -14
-730 -156 -1020 -447 -222 -221 -341 -440 -411 -761 -20 -90 -23 -131 -23
-304 0 -168 4 -217 23 -305 39 -183 111 -368 199 -514 23 -37 42 -73 42 -80 0
-6 -52 -63 -116 -126 l-115 -115 -20 25 c-52 62 -183 316 -254 489 -134 330
-231 712 -280 1103 -22 181 -22 1365 0 1408 23 45 58 57 185 65 245 15 507 56
760 120 315 79 539 165 825 315 113 59 202 99 220 99 19 1 106 -37 230 -98z
m-8 -1376 c581 -110 932 -638 818 -1230 -65 -336 -298 -617 -620 -746 -262
-104 -584 -93 -838 29 -122 59 -199 115 -296 217 -125 132 -194 258 -249 453
-25 89 -27 111 -26 262 1 144 4 177 27 262 31 117 90 247 151 331 52 73 181
202 251 253 56 40 204 113 281 138 141 46 353 59 501 31z"/>
</g>
</svg>
